<?xml version="1.0" encoding="UTF-8" standalone="no"?>
<!-- Created with Inkscape (http://www.inkscape.org/) -->

<svg
   width="207.76132mm"
   height="32.73877mm"
   viewBox="0 0 207.76132 32.73877"
   version="1.1"
   id="svg5"
   xml:space="preserve"
   inkscape:version="1.2 (dc2aedaf03, 2022-05-15)"
   sodipodi:docname="ujsg title logo.svg"
   xmlns:inkscape="http://www.inkscape.org/namespaces/inkscape"
   xmlns:sodipodi="http://sodipodi.sourceforge.net/DTD/sodipodi-0.dtd"
   xmlns="http://www.w3.org/2000/svg"
   xmlns:svg="http://www.w3.org/2000/svg"><sodipodi:namedview
     id="namedview7"
     pagecolor="#ffffff"
     bordercolor="#000000"
     borderopacity="0.25"
     inkscape:showpageshadow="2"
     inkscape:pageopacity="0.0"
     inkscape:pagecheckerboard="true"
     inkscape:deskcolor="#d1d1d1"
     inkscape:document-units="mm"
     showgrid="false"
     inkscape:zoom="2.587745"
     inkscape:cx="307.60373"
     inkscape:cy="66.853574"
     inkscape:window-width="3440"
     inkscape:window-height="1417"
     inkscape:window-x="-8"
     inkscape:window-y="-8"
     inkscape:window-maximized="1"
     inkscape:current-layer="layer1" /><defs
     id="defs2"><inkscape:perspective
       sodipodi:type="inkscape:persp3d"
       inkscape:vp_x="0 : 148.5 : 1"
       inkscape:vp_y="0 : 1000 : 0"
       inkscape:vp_z="210 : 148.5 : 1"
       inkscape:persp3d-origin="105 : 99 : 1"
       id="perspective2912" /></defs><g
     inkscape:label="Layer 1"
     inkscape:groupmode="layer"
     id="layer1"
     transform="translate(-0.71571323,-124.94308)"><path
       id="path4379"
       style="font-variation-settings:normal;opacity:1;fill:#146B6D;fill-opacity:1;stroke:#292831;stroke-width:0;stroke-linecap:butt;stroke-linejoin:miter;stroke-miterlimit:4;stroke-dasharray:none;stroke-dashoffset:0;stroke-opacity:1;stop-color:#000000;stop-opacity:1"
       d="m 186.56484,125.97939 -12.90516,0.54209 v 31.12419 h 6.6151 l -0.14417,-11.71194 7.2657,-0.18087 -0.0723,11.89281 6.65127,0.0362 v -6.83214 l -4.48241,-5.31389 4.41006,-0.10852 0.0724,-11.78429 z m -2.96416,5.74745 3.90415,3.14503 -0.0723,6.83214 -7.44658,0.18087 0.0362,-10.08569 z" /><path
       id="path4372"
       style="font-variation-settings:normal;opacity:1;fill:#146B6D;fill-opacity:1;stroke:#292831;stroke-width:0;stroke-linecap:butt;stroke-linejoin:miter;stroke-miterlimit:4;stroke-dasharray:none;stroke-dashoffset:0;stroke-opacity:1;stop-color:#000000;stop-opacity:1"
       d="m 166.7552,126.88269 -19.52026,0.90383 -0.5426,0.7953 0.18087,29.06385 8.061,-0.0362 0.0367,-10.41073 8.71162,-0.10852 v 10.51925 h 7.30239 v -18.36374 l -4.22971,-0.18086 z m -4.2292,6.57945 0.7953,0.39739 0.0357,8.82065 -8.31422,0.0362 -0.0362,-8.92917 z" /><path
       id="path2693"
       style="font-variation-settings:normal;opacity:1;fill:#146B6D;fill-opacity:1;stroke:#292831;stroke-width:0;stroke-linecap:butt;stroke-linejoin:miter;stroke-miterlimit:4;stroke-dasharray:none;stroke-dashoffset:0;stroke-opacity:1;stop-color:#000000;stop-opacity:1"
       d="m 90.987211,130.35328 -18.183386,0.94 v 26.31622 h 6.217708 l 0.03617,-9.7963 9.398909,-0.0724 -0.03617,9.83248 7.157702,-0.0362 v -15.79696 l -4.519104,-0.0724 z m -2.747636,6.32623 0.108521,6.72362 -9.290389,0.10852 -0.07235,-6.14536 z" /><path
       style="fill:#b3b3b3;stroke-width:0.264583"
       d="M 208.47704,124.94308 C 0.71571323,134.96307 0.71571323,134.96307 0.71571323,134.96307"
       id="path233" /><path
       style="fill:#00ff00;stroke-width:0.264583"
       d="M 208.3627,125.07546 2.4581305,134.47419 Z"
       id="path331" /><path
       style="font-variation-settings:normal;opacity:1;fill:#146B6D;fill-opacity:1;stroke:#292831;stroke-width:0;stroke-linecap:butt;stroke-linejoin:miter;stroke-miterlimit:4;stroke-dasharray:none;stroke-dashoffset:0;stroke-opacity:1;stop-color:#000000;stop-opacity:1"
       d="m 5.063642,134.35365 0.2141088,23.11178 19.6650432,-4.8e-4 0.144596,-12.94134 -3.831791,-0.0723 -0.141045,-10.84023 -2.446206,0.11317 -0.160072,19.25822 -6.217624,0.0723 -0.289275,-19.01619 z"
       id="path499"
       sodipodi:nodetypes="ccccccccccc" /><path
       style="font-variation-settings:normal;opacity:1;fill:#146B6D;fill-opacity:1;stroke:#292831;stroke-width:0;stroke-linecap:butt;stroke-linejoin:miter;stroke-miterlimit:4;stroke-dasharray:none;stroke-dashoffset:0;stroke-opacity:1;stop-color:#000000;stop-opacity:1"
       d="m 21.978578,143.36684 4.807815,0.0361 0.107034,-10.04418 -5.023296,0.25227 z"
       id="path1181" /><path
       style="font-variation-settings:normal;opacity:1;fill:#146B6D;fill-opacity:1;stroke:#292831;stroke-width:0;stroke-linecap:butt;stroke-linejoin:miter;stroke-miterlimit:4;stroke-dasharray:none;stroke-dashoffset:0;stroke-opacity:1;stop-color:#000000;stop-opacity:1"
       d="m 27.581669,157.60954 0.0723,-7.98892 0.650681,-0.54224 5.74769,-0.0362 0.108444,2.74732 -1.012171,0.18075 -1.915896,-0.0362 0.0723,1.19292 3.867939,0.0361 -0.03615,-5.49465 -3.542601,0.10845 -0.03615,-14.67649 13.230526,-0.61453 -0.180747,25.08739 z"
       id="path2689" /><path
       style="font-variation-settings:normal;opacity:1;fill:#146B6D;fill-opacity:1;stroke:#292831;stroke-width:0;stroke-linecap:butt;stroke-linejoin:miter;stroke-miterlimit:4;stroke-dasharray:none;stroke-dashoffset:0;stroke-opacity:1;stop-color:#000000;stop-opacity:1"
       d="m 48.43963,132.37755 -0.216895,14.27885 16.917723,-1.55441 0.03615,5.71154 -17.026168,1.26522 0.0723,5.53079 21.074854,-0.0362 -0.03615,-15.65251 -16.447785,1.55441 v -4.84396 l 16.664678,-1.37366 v -5.81999 z"
       id="path2691" /><path
       style="font-variation-settings:normal;opacity:1;fill:#146B6D;fill-opacity:1;stroke:#292831;stroke-width:0.1;stroke-linecap:butt;stroke-linejoin:miter;stroke-miterlimit:4;stroke-dasharray:none;stroke-dashoffset:0;stroke-opacity:1;stop-color:#000000;stop-opacity:1"
       d="m 92.21604,140.58337 4.590921,-0.0361 0.614531,-0.50608 -0.108444,-10.08557 -5.133155,0.32534 z"
       id="path2914" /><path
       style="font-variation-settings:normal;opacity:1;fill:#146B6D;fill-opacity:1;stroke:#292831;stroke-width:0;stroke-linecap:butt;stroke-linejoin:miter;stroke-miterlimit:4;stroke-dasharray:none;stroke-dashoffset:0;stroke-opacity:1;stop-color:#000000;stop-opacity:1"
       d="m 99.048198,157.57339 -0.03615,-27.58167 20.424172,-0.93987 0.18074,6.28992 -13.15822,1.08447 -0.0723,15.29102 9.32644,-0.90373 0.0362,-4.30173 h -1.95205 v 2.24124 l -2.34968,0.43379 v -4.33788 l 8.42271,-1.01217 0.0723,13.70046 z"
       id="path2916" /><path
       style="font-variation-settings:normal;opacity:1;fill:#146B6D;fill-opacity:1;stroke:#292831;stroke-width:0;stroke-linecap:butt;stroke-linejoin:miter;stroke-miterlimit:4;stroke-dasharray:none;stroke-dashoffset:0;stroke-opacity:1;stop-color:#000000;stop-opacity:1"
       d="m 120.0869,129.05185 11.82072,28.55769 6.32607,-0.0362 7.44669,-29.75061 -7.30209,0.2892 -4.08484,18.36367 -7.30209,-17.82144 z"
       id="path4370" /><path
       style="font-variation-settings:normal;opacity:1;fill:#146B6D;fill-opacity:1;stroke:#292831;stroke-width:0;stroke-linecap:butt;stroke-linejoin:miter;stroke-miterlimit:4;stroke-dasharray:none;stroke-dashoffset:0;stroke-opacity:1;stop-color:#000000;stop-opacity:1"
       d="m 167.65896,137.90835 h 4.51862 l 0.0361,-11.27848 -4.55477,0.18074 z"
       id="path4377" /><path
       style="font-variation-settings:normal;opacity:1;fill:#146B6D;fill-opacity:1;stroke:#292831;stroke-width:0;stroke-linecap:butt;stroke-linejoin:miter;stroke-miterlimit:4;stroke-dasharray:none;stroke-dashoffset:0;stroke-opacity:1;stop-color:#000000;stop-opacity:1"
       d="m 198.38559,157.5734 0.18074,-32.1726 6.57912,-0.36149 0.0361,32.57023 z"
       id="path4384"
       sodipodi:nodetypes="ccccc" /></g></svg>
